<svg width="178" height="30" viewBox="0 0 178 30" fill="none" xmlns="http://www.w3.org/2000/svg">
<path d="M8.08031 23L0.970313 7.43H2.05031L8.80031 22.4H8.35031L15.1303 7.43H16.1803L9.07031 23H8.08031ZM19.6484 23V7.43H20.6384V23H19.6484ZM20.1284 3.35C19.8684 3.35 19.6384 3.25 19.4384 3.05C19.2384 2.85 19.1384 2.63 19.1384 2.39C19.1384 2.11 19.2384 1.88 19.4384 1.7C19.6384 1.5 19.8684 1.4 20.1284 1.4C20.4084 1.4 20.6384 1.5 20.8184 1.7C21.0184 1.88 21.1184 2.1 21.1184 2.36C21.1184 2.62 21.0184 2.85 20.8184 3.05C20.6384 3.25 20.4084 3.35 20.1284 3.35ZM34.9748 23.09C33.5748 23.09 32.3148 22.77 31.1948 22.13C30.0748 21.47 29.1848 20.54 28.5248 19.34C27.8848 18.14 27.5648 16.76 27.5648 15.2C27.5648 13.62 27.8848 12.24 28.5248 11.06C29.1848 9.88 30.0748 8.96 31.1948 8.3C32.3148 7.64 33.5748 7.31 34.9748 7.31C36.4148 7.31 37.7048 7.65 38.8448 8.33C40.0048 9.01 40.9148 9.94 41.5748 11.12C42.2548 12.28 42.5948 13.64 42.5948 15.2C42.5948 16.74 42.2548 18.11 41.5748 19.31C40.9148 20.49 40.0048 21.42 38.8448 22.1C37.7048 22.76 36.4148 23.09 34.9748 23.09ZM27.2948 23V0.739999H28.2848V12.8L27.9848 15.17L28.2548 17.54V23H27.2948ZM34.9448 22.19C36.2048 22.19 37.3348 21.9 38.3348 21.32C39.3548 20.72 40.1548 19.89 40.7348 18.83C41.3148 17.77 41.6048 16.56 41.6048 15.2C41.6048 13.82 41.3148 12.61 40.7348 11.57C40.1548 10.51 39.3548 9.69 38.3348 9.11C37.3348 8.53 36.2048 8.24 34.9448 8.24C33.6648 8.24 32.5248 8.53 31.5248 9.11C30.5248 9.69 29.7348 10.51 29.1548 11.57C28.5748 12.61 28.2848 13.82 28.2848 15.2C28.2848 16.56 28.5748 17.77 29.1548 18.83C29.7348 19.89 30.5248 20.72 31.5248 21.32C32.5248 21.9 33.6648 22.19 34.9448 22.19ZM53.6004 23.09C52.0604 23.09 50.7004 22.76 49.5204 22.1C48.3404 21.42 47.4104 20.48 46.7304 19.28C46.0504 18.08 45.7104 16.72 45.7104 15.2C45.7104 13.66 46.0204 12.3 46.6404 11.12C47.2804 9.94 48.1504 9.01 49.2504 8.33C50.3704 7.65 51.6304 7.31 53.0304 7.31C54.4104 7.31 55.6504 7.64 56.7504 8.3C57.8704 8.96 58.7404 9.88 59.3604 11.06C60.0004 12.22 60.3204 13.56 60.3204 15.08C60.3204 15.12 60.3204 15.17 60.3204 15.23C60.3204 15.27 60.3204 15.31 60.3204 15.35H46.3704V14.54H59.7804L59.3904 15.02C59.3904 13.72 59.1104 12.56 58.5504 11.54C58.0104 10.5 57.2604 9.69 56.3004 9.11C55.3404 8.51 54.2504 8.21 53.0304 8.21C51.8104 8.21 50.7204 8.51 49.7604 9.11C48.8004 9.69 48.0404 10.5 47.4804 11.54C46.9404 12.56 46.6704 13.73 46.6704 15.05V15.23C46.6704 16.59 46.9704 17.8 47.5704 18.86C48.1704 19.9 48.9904 20.72 50.0304 21.32C51.0704 21.9 52.2604 22.19 53.6004 22.19C54.6204 22.19 55.5804 22 56.4804 21.62C57.4004 21.24 58.1604 20.66 58.7604 19.88L59.3904 20.54C58.6904 21.38 57.8304 22.02 56.8104 22.46C55.8104 22.88 54.7404 23.09 53.6004 23.09ZM73.575 23.24C72.155 23.24 70.935 22.94 69.915 22.34C68.895 21.74 68.115 20.83 67.575 19.61C67.035 18.37 66.765 16.81 66.765 14.93C66.765 13.03 67.045 11.47 67.605 10.25C68.185 9.03 68.985 8.12 70.005 7.52C71.025 6.92 72.215 6.62 73.575 6.62C75.095 6.62 76.455 6.96 77.655 7.64C78.875 8.32 79.835 9.28 80.535 10.52C81.255 11.76 81.615 13.23 81.615 14.93C81.615 16.61 81.255 18.07 80.535 19.31C79.835 20.55 78.875 21.52 77.655 22.22C76.455 22.9 75.095 23.24 73.575 23.24ZM64.035 23V0.739999H68.715V10.13L68.415 14.9L68.505 19.7V23H64.035ZM72.765 19.4C73.545 19.4 74.235 19.22 74.835 18.86C75.455 18.5 75.945 17.99 76.305 17.33C76.685 16.65 76.875 15.85 76.875 14.93C76.875 13.99 76.685 13.19 76.305 12.53C75.945 11.87 75.455 11.36 74.835 11C74.235 10.64 73.545 10.46 72.765 10.46C71.985 10.46 71.285 10.64 70.665 11C70.045 11.36 69.555 11.87 69.195 12.53C68.835 13.19 68.655 13.99 68.655 14.93C68.655 15.85 68.835 16.65 69.195 17.33C69.555 17.99 70.045 18.5 70.665 18.86C71.285 19.22 71.985 19.4 72.765 19.4ZM92.7579 23.24C90.9179 23.24 89.2979 22.88 87.8979 22.16C86.5179 21.44 85.4479 20.46 84.6879 19.22C83.9279 17.96 83.5479 16.53 83.5479 14.93C83.5479 13.31 83.9179 11.88 84.6579 10.64C85.4179 9.38 86.4479 8.4 87.7479 7.7C89.0479 6.98 90.5179 6.62 92.1579 6.62C93.7379 6.62 95.1579 6.96 96.4179 7.64C97.6979 8.3 98.7079 9.26 99.4479 10.52C100.188 11.76 100.558 13.25 100.558 14.99C100.558 15.17 100.548 15.38 100.528 15.62C100.508 15.84 100.488 16.05 100.468 16.25H87.3579V13.52H98.0079L96.2079 14.33C96.2079 13.49 96.0379 12.76 95.6979 12.14C95.3579 11.52 94.8879 11.04 94.2879 10.7C93.6879 10.34 92.9879 10.16 92.1879 10.16C91.3879 10.16 90.6779 10.34 90.0579 10.7C89.4579 11.04 88.9879 11.53 88.6479 12.17C88.3079 12.79 88.1379 13.53 88.1379 14.39V15.11C88.1379 15.99 88.3279 16.77 88.7079 17.45C89.1079 18.11 89.6579 18.62 90.3579 18.98C91.0779 19.32 91.9179 19.49 92.8779 19.49C93.7379 19.49 94.4879 19.36 95.1279 19.1C95.7879 18.84 96.3879 18.45 96.9279 17.93L99.4179 20.63C98.6779 21.47 97.7479 22.12 96.6279 22.58C95.5079 23.02 94.2179 23.24 92.7579 23.24ZM105.421 29.06C104.581 29.06 103.751 28.93 102.931 28.67C102.111 28.41 101.441 28.05 100.921 27.59L102.631 24.26C102.991 24.58 103.401 24.83 103.861 25.01C104.341 25.19 104.811 25.28 105.271 25.28C105.931 25.28 106.451 25.12 106.831 24.8C107.231 24.5 107.591 23.99 107.911 23.27L108.751 21.29L109.111 20.78L114.901 6.86H119.401L112.111 23.99C111.591 25.29 110.991 26.31 110.311 27.05C109.651 27.79 108.911 28.31 108.091 28.61C107.291 28.91 106.401 29.06 105.421 29.06ZM108.181 23.63L100.981 6.86H105.811L111.391 20.36L108.181 23.63ZM128.551 23.24C126.831 23.24 125.301 22.88 123.961 22.16C122.641 21.44 121.591 20.46 120.811 19.22C120.051 17.96 119.671 16.53 119.671 14.93C119.671 13.31 120.051 11.88 120.811 10.64C121.591 9.38 122.641 8.4 123.961 7.7C125.301 6.98 126.831 6.62 128.551 6.62C130.251 6.62 131.771 6.98 133.111 7.7C134.451 8.4 135.501 9.37 136.261 10.61C137.021 11.85 137.401 13.29 137.401 14.93C137.401 16.53 137.021 17.96 136.261 19.22C135.501 20.46 134.451 21.44 133.111 22.16C131.771 22.88 130.251 23.24 128.551 23.24ZM128.551 19.4C129.331 19.4 130.031 19.22 130.651 18.86C131.271 18.5 131.761 17.99 132.121 17.33C132.481 16.65 132.661 15.85 132.661 14.93C132.661 13.99 132.481 13.19 132.121 12.53C131.761 11.87 131.271 11.36 130.651 11C130.031 10.64 129.331 10.46 128.551 10.46C127.771 10.46 127.071 10.64 126.451 11C125.831 11.36 125.331 11.87 124.951 12.53C124.591 13.19 124.411 13.99 124.411 14.93C124.411 15.85 124.591 16.65 124.951 17.33C125.331 17.99 125.831 18.5 126.451 18.86C127.071 19.22 127.771 19.4 128.551 19.4ZM150.339 6.62C151.619 6.62 152.759 6.88 153.759 7.4C154.779 7.9 155.579 8.68 156.159 9.74C156.739 10.78 157.029 12.12 157.029 13.76V23H152.349V14.48C152.349 13.18 152.059 12.22 151.479 11.6C150.919 10.98 150.119 10.67 149.079 10.67C148.339 10.67 147.669 10.83 147.069 11.15C146.489 11.45 146.029 11.92 145.689 12.56C145.369 13.2 145.209 14.02 145.209 15.02V23H140.529V6.86H144.999V11.33L144.159 9.98C144.739 8.9 145.569 8.07 146.649 7.49C147.729 6.91 148.959 6.62 150.339 6.62ZM168.319 23.24C166.799 23.24 165.429 22.9 164.209 22.22C162.989 21.52 162.019 20.55 161.299 19.31C160.599 18.07 160.249 16.61 160.249 14.93C160.249 13.23 160.599 11.76 161.299 10.52C162.019 9.28 162.989 8.32 164.209 7.64C165.429 6.96 166.799 6.62 168.319 6.62C169.679 6.62 170.869 6.92 171.889 7.52C172.909 8.12 173.699 9.03 174.259 10.25C174.819 11.47 175.099 13.03 175.099 14.93C175.099 16.81 174.829 18.37 174.289 19.61C173.749 20.83 172.969 21.74 171.949 22.34C170.949 22.94 169.739 23.24 168.319 23.24ZM169.129 19.4C169.889 19.4 170.579 19.22 171.199 18.86C171.819 18.5 172.309 17.99 172.669 17.33C173.049 16.65 173.239 15.85 173.239 14.93C173.239 13.99 173.049 13.19 172.669 12.53C172.309 11.87 171.819 11.36 171.199 11C170.579 10.64 169.889 10.46 169.129 10.46C168.349 10.46 167.649 10.64 167.029 11C166.409 11.36 165.909 11.87 165.529 12.53C165.169 13.19 164.989 13.99 164.989 14.93C164.989 15.85 165.169 16.65 165.529 17.33C165.909 17.99 166.409 18.5 167.029 18.86C167.649 19.22 168.349 19.4 169.129 19.4ZM173.359 23V19.7L173.449 14.9L173.149 10.13V0.739999H177.829V23H173.359Z" fill="url(#paint0_linear_2_16)"/>
<defs>
<linearGradient id="paint0_linear_2_16" x1="90" y1="-6" x2="90" y2="31" gradientUnits="userSpaceOnUse">
<stop offset="0.635417" stop-color="#9966CC"/>
<stop offset="0.864583" stop-color="#6683CC" stop-opacity="0.88"/>
</linearGradient>
</defs>
</svg>
