<svg width="1100" height="500" viewBox="0 0 1100 500" fill="none" xmlns="http://www.w3.org/2000/svg">
<path d="M79.5382 306L42.8782 224.568H51.1462L83.6026 297.448L85.4662 301.632H81.7222L83.6026 297.448L116.354 224.568H124.31L87.4942 306H79.5382Z" fill="#323232"/>
<path d="M141.364 306V224.568H149.164V306H141.364ZM145.264 204.756C143.496 204.756 141.988 204.132 140.74 202.884C139.492 201.636 138.868 200.18 138.868 198.516C138.868 196.748 139.492 195.24 140.74 193.992C141.988 192.744 143.496 192.12 145.264 192.12C147.136 192.12 148.644 192.744 149.788 193.992C151.036 195.136 151.66 196.592 151.66 198.36C151.66 200.128 151.036 201.636 149.788 202.884C148.644 204.132 147.136 204.756 145.264 204.756Z" fill="#323232"/>
<path d="M464.762 307.248C457.378 307.248 451.034 305.688 445.73 302.568C442.941 300.927 440.497 298.841 438.398 296.309C436.505 294.026 434.893 291.38 433.562 288.372C430.754 281.924 429.35 273.812 429.35 264.036C429.35 254.156 430.806 246.044 433.718 239.7C435.319 236.331 437.243 233.417 439.49 230.958C441.474 228.785 443.71 226.967 446.198 225.504C451.502 222.384 457.69 220.824 464.762 220.824C472.666 220.824 479.738 222.592 485.978 226.128C492.322 229.664 497.314 234.656 500.954 241.104C504.698 247.552 506.57 255.196 506.57 264.036C506.57 272.772 504.698 280.364 500.954 286.812C497.314 293.26 492.322 298.304 485.978 301.944C479.738 305.48 472.666 307.248 464.762 307.248ZM415.154 306V190.248H439.49V230.958V239.076L437.93 263.88L438.398 288.84V296.309V306H415.154ZM460.55 287.28C464.606 287.28 468.194 286.344 471.314 284.472C474.538 282.6 477.086 279.948 478.958 276.516C480.934 272.98 481.922 268.82 481.922 264.036C481.922 259.148 480.934 254.988 478.958 251.556C477.086 248.124 474.538 245.472 471.314 243.6C468.194 241.728 464.606 240.792 460.55 240.792C456.494 240.792 452.854 241.728 449.63 243.6C446.406 245.472 443.858 248.124 441.986 251.556C440.114 254.988 439.178 259.148 439.178 264.036C439.178 268.82 440.114 272.98 441.986 276.516C443.858 279.948 446.406 282.6 449.63 284.472C452.854 286.344 456.494 287.28 460.55 287.28Z" fill="#323232"/>
<path d="M564.513 307.248C554.945 307.248 546.521 305.376 539.241 301.632C532.065 297.888 526.501 292.792 522.549 286.344C518.597 279.792 516.621 272.356 516.621 264.036C516.621 255.612 518.545 248.176 522.393 241.728C526.345 235.176 531.701 230.08 538.461 226.44C545.221 222.696 552.865 220.824 561.393 220.824C569.609 220.824 576.993 222.592 583.545 226.128C590.201 229.56 595.453 234.552 599.301 241.104C603.149 247.552 605.073 255.3 605.073 264.348C605.073 265.284 605.021 266.376 604.917 267.624C604.813 268.768 604.709 269.86 604.605 270.9H541.104H536.433V256.704H540.823H582.153H591.813L582.453 260.916C582.453 259.447 582.353 258.043 582.153 256.704C581.759 254.06 580.974 251.668 579.801 249.528C578.033 246.304 575.589 243.808 572.469 242.04C569.349 240.168 565.709 239.232 561.549 239.232C557.389 239.232 553.697 240.168 550.473 242.04C547.353 243.808 544.909 246.356 543.141 249.684C542 251.764 541.227 254.104 540.823 256.704C540.6 258.133 540.489 259.641 540.489 261.228V264.972C540.489 267.056 540.694 269.032 541.104 270.9C541.594 273.134 542.377 275.214 543.453 277.14C545.533 280.572 548.393 283.224 552.033 285.096C555.777 286.864 560.145 287.748 565.137 287.748C569.609 287.748 573.509 287.072 576.837 285.72C580.269 284.368 583.389 282.34 586.197 279.636L599.145 293.676C595.297 298.044 590.461 301.424 584.637 303.816C578.813 306.104 572.105 307.248 564.513 307.248Z" fill="#323232"/>
<path d="M630.36 337.512C625.992 337.512 621.676 336.836 617.412 335.484C613.148 334.132 609.664 332.26 606.96 329.868L615.852 312.552C617.724 314.216 619.856 315.516 622.248 316.452C624.744 317.388 627.188 317.856 629.58 317.856C633.012 317.856 635.716 317.024 637.692 315.36C639.772 313.8 641.644 311.148 643.308 307.404L643.606 306.701L647.676 297.108L649.548 294.456L655.947 279.071L679.656 222.072H703.056L665.148 311.148C662.444 317.908 659.324 323.212 655.788 327.06C652.356 330.908 648.508 333.612 644.244 335.172C640.084 336.732 635.456 337.512 630.36 337.512ZM644.712 309.276L643.606 306.701L607.272 222.072H632.388L655.947 279.071L661.404 292.272L644.712 309.276Z" fill="#323232"/>
<path d="M750.637 307.248C741.693 307.248 733.737 305.376 726.769 301.632C719.905 297.888 714.445 292.792 710.389 286.344C706.437 279.792 704.461 272.356 704.461 264.036C704.461 255.612 706.437 248.176 710.389 241.728C714.445 235.176 719.905 230.08 726.769 226.44C733.737 222.696 741.693 220.824 750.637 220.824C759.477 220.824 767.381 222.696 774.349 226.44C781.317 230.08 786.777 235.124 790.729 241.572C794.681 248.02 796.657 255.508 796.657 264.036C796.657 272.356 794.681 279.792 790.729 286.344C786.777 292.792 781.317 297.888 774.349 301.632C767.381 305.376 759.477 307.248 750.637 307.248ZM750.637 287.28C754.693 287.28 758.333 286.344 761.557 284.472C764.781 282.6 767.329 279.948 769.201 276.516C771.073 272.98 772.009 268.82 772.009 264.036C772.009 259.148 771.073 254.988 769.201 251.556C767.329 248.124 764.781 245.472 761.557 243.6C758.333 241.728 754.693 240.792 750.637 240.792C746.581 240.792 742.941 241.728 739.717 243.6C736.493 245.472 733.893 248.124 731.917 251.556C730.045 254.988 729.109 259.148 729.109 264.036C729.109 268.82 730.045 272.98 731.917 276.516C733.893 279.948 736.493 282.6 739.717 284.472C742.941 286.344 746.581 287.28 750.637 287.28Z" fill="#323232"/>
<path d="M863.935 220.824C870.591 220.824 876.519 222.176 881.719 224.88C887.023 227.48 891.183 231.536 894.199 237.048C897.215 242.456 898.723 249.424 898.723 257.952V306H874.387V261.696C874.387 254.936 872.879 249.944 869.863 246.72C866.951 243.496 862.791 241.884 857.383 241.884C853.535 241.884 850.051 242.716 846.931 244.38C843.915 245.94 841.523 248.384 839.755 251.712C838.091 255.04 837.259 259.304 837.259 264.504V306H812.923V222.072H836.167V232.041V245.316L831.799 238.296C833.037 235.992 834.493 233.907 836.167 232.041C838.575 229.358 841.435 227.127 844.747 225.348C850.363 222.332 856.759 220.824 863.935 220.824Z" fill="#323232"/>
<path d="M957.428 307.248C949.524 307.248 942.4 305.48 936.056 301.944C929.712 298.304 924.668 293.26 920.924 286.812C917.284 280.364 915.464 272.772 915.464 264.036C915.464 255.196 917.284 247.552 920.924 241.104C924.668 234.656 929.712 229.664 936.056 226.128C942.4 222.592 949.524 220.824 957.428 220.824C964.5 220.824 970.688 222.384 975.992 225.504C978.429 226.937 980.613 228.71 982.544 230.824C984.818 233.311 986.742 236.27 988.316 239.7C991.228 246.044 992.684 254.156 992.684 264.036C992.684 273.812 991.28 281.924 988.472 288.372C987.141 291.38 985.529 294.026 983.636 296.309C981.537 298.841 979.093 300.927 976.304 302.568C971.104 305.688 964.812 307.248 957.428 307.248ZM961.64 287.28C965.592 287.28 969.18 286.344 972.404 284.472C975.628 282.6 978.176 279.948 980.048 276.516C982.024 272.98 983.012 268.82 983.012 264.036C983.012 259.148 982.024 254.988 980.048 251.556C978.176 248.124 975.628 245.472 972.404 243.6C969.18 241.728 965.592 240.792 961.64 240.792C957.584 240.792 953.944 241.728 950.72 243.6C947.496 245.472 944.896 248.124 942.92 251.556C941.048 254.988 940.112 259.148 940.112 264.036C940.112 268.82 941.048 272.98 942.92 276.516C944.896 279.948 947.496 282.6 950.72 284.472C953.944 286.344 957.584 287.28 961.64 287.28ZM983.636 306V296.309V288.84L984.104 263.88L982.544 239.076V230.824V190.248H1006.88V306H983.636Z" fill="#323232"/>
<path d="M1038.61 307.248C1034.45 307.248 1030.86 305.844 1027.84 303.036C1024.93 300.124 1023.48 296.432 1023.48 291.96C1023.48 287.488 1024.93 283.9 1027.84 281.196C1030.86 278.388 1034.45 276.984 1038.61 276.984C1042.87 276.984 1046.46 278.388 1049.37 281.196C1052.28 283.9 1053.74 287.488 1053.74 291.96C1053.74 296.432 1052.28 300.124 1049.37 303.036C1046.46 305.844 1042.87 307.248 1038.61 307.248Z" fill="#323232"/>
<path d="M284.189 261.072V267.156H286.089C286.07 266.641 286.061 266.121 286.061 265.596V264.192C286.061 263.132 286.098 262.092 286.171 261.072H284.189Z" fill="#323232"/>
<path d="M298.541 301.32C304.885 304.856 312.165 306.624 320.381 306.624C326.621 306.624 332.393 305.532 337.697 303.348C343.105 301.06 347.577 297.732 351.113 293.364L346.589 288.216C343.469 292.064 339.621 294.924 335.045 296.796C330.573 298.668 325.737 299.604 320.537 299.604C313.881 299.604 307.953 298.2 302.753 295.392C297.553 292.48 293.445 288.476 290.429 283.38C287.747 278.59 286.3 273.182 286.089 267.156H284.189V261.072H286.171C286.542 255.884 287.858 251.204 290.117 247.032C292.821 241.936 296.513 237.984 301.193 235.176C305.977 232.264 311.385 230.808 317.417 230.808C323.553 230.808 328.961 232.264 333.641 235.176C338.321 237.984 342.013 241.936 344.717 247.032C347.081 251.233 348.413 255.913 348.713 261.072H351.893L348.773 264.036C348.79 263.031 348.77 262.043 348.713 261.072H286.171C286.098 262.092 286.061 263.132 286.061 264.192V265.596C286.061 266.121 286.07 266.641 286.089 267.156H356.105V266.064C356.209 265.648 356.261 265.284 356.261 264.972C356.261 256.86 354.545 249.736 351.113 243.6C347.785 237.36 343.157 232.524 337.229 229.092C331.405 225.66 324.801 223.944 317.417 223.944C310.033 223.944 303.377 225.712 297.449 229.248C291.521 232.784 286.841 237.672 283.409 243.912C280.081 250.048 278.417 257.172 278.417 265.284C278.417 273.292 280.185 280.416 283.721 286.656C287.361 292.896 292.301 297.784 298.541 301.32Z" fill="#323232"/>
<path d="M189.684 243.132C186.356 249.268 184.692 256.652 184.692 265.284C184.692 273.575 186.304 280.809 189.528 286.984V279.324L188.28 265.128L189.84 250.932V242.855C189.788 242.947 189.736 243.039 189.684 243.132Z" fill="#323232"/>
<path fill-rule="evenodd" clip-rule="evenodd" d="M351.893 261.072H348.713C348.77 262.043 348.79 263.031 348.773 264.036L351.893 261.072ZM184.692 265.284C184.692 273.575 186.304 280.809 189.528 286.984V306H182.04V190.248H189.84V242.855C189.788 242.947 189.736 243.039 189.684 243.132C186.356 249.268 184.692 256.652 184.692 265.284ZM189.84 242.855C193.254 236.854 197.778 232.214 203.412 228.936C209.236 225.608 215.736 223.944 222.912 223.944C230.608 223.944 237.472 225.712 243.504 229.248C249.64 232.68 254.424 237.516 257.856 243.756C261.392 249.892 263.16 257.068 263.16 265.284C263.16 273.396 261.392 280.572 257.856 286.812C254.424 293.052 249.64 297.94 243.504 301.476C237.472 304.908 230.608 306.624 222.912 306.624C215.736 306.624 209.236 304.96 203.412 301.632C197.692 298.304 193.116 293.52 189.684 287.28C189.631 287.182 189.579 287.083 189.528 286.984V279.324L188.28 265.128L189.84 250.932V242.855ZM239.292 295.392C234.3 298.2 228.684 299.604 222.444 299.604C216.204 299.604 210.588 298.2 205.596 295.392C200.708 292.48 196.808 288.424 193.896 283.224C191.088 278.024 189.684 272.044 189.684 265.284C189.684 258.42 191.088 252.44 193.896 247.344C196.808 242.144 200.708 238.14 205.596 235.332C210.588 232.42 216.204 230.964 222.444 230.964C228.684 230.964 234.3 232.42 239.292 235.332C244.284 238.14 248.184 242.144 250.992 247.344C253.904 252.44 255.36 258.42 255.36 265.284C255.36 272.044 253.904 278.024 250.992 283.224C248.184 288.424 244.284 292.48 239.292 295.392ZM79.5382 306L42.8782 224.568H51.1462L83.6026 297.448L116.354 224.568H124.31L87.4942 306H79.5382ZM141.364 224.568V306H149.164V224.568H141.364ZM140.74 202.884C141.988 204.132 143.496 204.756 145.264 204.756C147.136 204.756 148.644 204.132 149.788 202.884C151.036 201.636 151.66 200.128 151.66 198.36C151.66 196.592 151.036 195.136 149.788 193.992C148.644 192.744 147.136 192.12 145.264 192.12C143.496 192.12 141.988 192.744 140.74 193.992C139.492 195.24 138.868 196.748 138.868 198.516C138.868 200.18 139.492 201.636 140.74 202.884ZM464.762 307.248C457.378 307.248 451.034 305.688 445.73 302.568C442.941 300.927 440.497 298.841 438.398 296.309V306H415.154V190.248H439.49V230.958C441.474 228.785 443.71 226.967 446.198 225.504C451.502 222.384 457.69 220.824 464.762 220.824C472.666 220.824 479.738 222.592 485.978 226.128C492.322 229.664 497.314 234.656 500.954 241.104C504.698 247.552 506.57 255.196 506.57 264.036C506.57 272.772 504.698 280.364 500.954 286.812C497.314 293.26 492.322 298.304 485.978 301.944C479.738 305.48 472.666 307.248 464.762 307.248ZM564.513 307.248C554.945 307.248 546.521 305.376 539.241 301.632C532.065 297.888 526.501 292.792 522.549 286.344C518.597 279.792 516.621 272.356 516.621 264.036C516.621 255.612 518.545 248.176 522.393 241.728C526.345 235.176 531.701 230.08 538.461 226.44C545.221 222.696 552.865 220.824 561.393 220.824C569.609 220.824 576.993 222.592 583.545 226.128C590.201 229.56 595.453 234.552 599.301 241.104C603.149 247.552 605.073 255.3 605.073 264.348C605.073 265.284 605.021 266.376 604.917 267.624C604.813 268.768 604.709 269.86 604.605 270.9H541.104C541.594 273.134 542.377 275.214 543.453 277.14C545.533 280.572 548.393 283.224 552.033 285.096C555.777 286.864 560.145 287.748 565.137 287.748C569.609 287.748 573.509 287.072 576.837 285.72C580.269 284.368 583.389 282.34 586.197 279.636L599.145 293.676C595.297 298.044 590.461 301.424 584.637 303.816C578.813 306.104 572.105 307.248 564.513 307.248ZM630.36 337.512C625.992 337.512 621.676 336.836 617.412 335.484C613.148 334.132 609.664 332.26 606.96 329.868L615.852 312.552C617.724 314.216 619.856 315.516 622.248 316.452C624.744 317.388 627.188 317.856 629.58 317.856C633.012 317.856 635.716 317.024 637.692 315.36C639.772 313.8 641.644 311.148 643.308 307.404L643.606 306.701L607.272 222.072H632.388L655.947 279.071L679.656 222.072H703.056L665.148 311.148C662.444 317.908 659.324 323.212 655.788 327.06C652.356 330.908 648.508 333.612 644.244 335.172C640.084 336.732 635.456 337.512 630.36 337.512ZM726.769 301.632C733.737 305.376 741.693 307.248 750.637 307.248C759.477 307.248 767.381 305.376 774.349 301.632C781.317 297.888 786.777 292.792 790.729 286.344C794.681 279.792 796.657 272.356 796.657 264.036C796.657 255.508 794.681 248.02 790.729 241.572C786.777 235.124 781.317 230.08 774.349 226.44C767.381 222.696 759.477 220.824 750.637 220.824C741.693 220.824 733.737 222.696 726.769 226.44C719.905 230.08 714.445 235.176 710.389 241.728C706.437 248.176 704.461 255.612 704.461 264.036C704.461 272.356 706.437 279.792 710.389 286.344C714.445 292.792 719.905 297.888 726.769 301.632ZM863.935 220.824C870.591 220.824 876.519 222.176 881.719 224.88C887.023 227.48 891.183 231.536 894.199 237.048C897.215 242.456 898.723 249.424 898.723 257.952V306H874.387V261.696C874.387 254.936 872.879 249.944 869.863 246.72C866.951 243.496 862.791 241.884 857.383 241.884C853.535 241.884 850.051 242.716 846.931 244.38C843.915 245.94 841.523 248.384 839.755 251.712C838.091 255.04 837.259 259.304 837.259 264.504V306H812.923V222.072H836.167V232.041C838.575 229.358 841.435 227.127 844.747 225.348C850.363 222.332 856.759 220.824 863.935 220.824ZM957.428 307.248C949.524 307.248 942.4 305.48 936.056 301.944C929.712 298.304 924.668 293.26 920.924 286.812C917.284 280.364 915.464 272.772 915.464 264.036C915.464 255.196 917.284 247.552 920.924 241.104C924.668 234.656 929.712 229.664 936.056 226.128C942.4 222.592 949.524 220.824 957.428 220.824C964.5 220.824 970.688 222.384 975.992 225.504C978.429 226.937 980.613 228.71 982.544 230.824V190.248H1006.88V306H983.636V296.309C981.537 298.841 979.093 300.927 976.304 302.568C971.104 305.688 964.812 307.248 957.428 307.248ZM1027.84 303.036C1030.86 305.844 1034.45 307.248 1038.61 307.248C1042.87 307.248 1046.46 305.844 1049.37 303.036C1052.28 300.124 1053.74 296.432 1053.74 291.96C1053.74 287.488 1052.28 283.9 1049.37 281.196C1046.46 278.388 1042.87 276.984 1038.61 276.984C1034.45 276.984 1030.86 278.388 1027.84 281.196C1024.93 283.9 1023.48 287.488 1023.48 291.96C1023.48 296.432 1024.93 300.124 1027.84 303.036ZM460.55 287.28C464.606 287.28 468.194 286.344 471.314 284.472C474.538 282.6 477.086 279.948 478.958 276.516C480.934 272.98 481.922 268.82 481.922 264.036C481.922 259.148 480.934 254.988 478.958 251.556C477.086 248.124 474.538 245.472 471.314 243.6C468.194 241.728 464.606 240.792 460.55 240.792C456.494 240.792 452.854 241.728 449.63 243.6C446.406 245.472 443.858 248.124 441.986 251.556C440.114 254.988 439.178 259.148 439.178 264.036C439.178 268.82 440.114 272.98 441.986 276.516C443.858 279.948 446.406 282.6 449.63 284.472C452.854 286.344 456.494 287.28 460.55 287.28ZM582.153 256.704H540.823C541.227 254.104 542 251.764 543.141 249.684C544.909 246.356 547.353 243.808 550.473 242.04C553.697 240.168 557.389 239.232 561.549 239.232C565.709 239.232 569.349 240.168 572.469 242.04C575.589 243.808 578.033 246.304 579.801 249.528C580.974 251.668 581.759 254.06 582.153 256.704ZM750.637 287.28C754.693 287.28 758.333 286.344 761.557 284.472C764.781 282.6 767.329 279.948 769.201 276.516C771.073 272.98 772.009 268.82 772.009 264.036C772.009 259.148 771.073 254.988 769.201 251.556C767.329 248.124 764.781 245.472 761.557 243.6C758.333 241.728 754.693 240.792 750.637 240.792C746.581 240.792 742.941 241.728 739.717 243.6C736.493 245.472 733.893 248.124 731.917 251.556C730.045 254.988 729.109 259.148 729.109 264.036C729.109 268.82 730.045 272.98 731.917 276.516C733.893 279.948 736.493 282.6 739.717 284.472C742.941 286.344 746.581 287.28 750.637 287.28ZM972.404 284.472C969.18 286.344 965.592 287.28 961.64 287.28C957.584 287.28 953.944 286.344 950.72 284.472C947.496 282.6 944.896 279.948 942.92 276.516C941.048 272.98 940.112 268.82 940.112 264.036C940.112 259.148 941.048 254.988 942.92 251.556C944.896 248.124 947.496 245.472 950.72 243.6C953.944 241.728 957.584 240.792 961.64 240.792C965.592 240.792 969.18 241.728 972.404 243.6C975.628 245.472 978.176 248.124 980.048 251.556C982.024 254.988 983.012 259.148 983.012 264.036C983.012 268.82 982.024 272.98 980.048 276.516C978.176 279.948 975.628 282.6 972.404 284.472Z" fill="#323232"/>
</svg>
